<mxfile host="65bd71144e" scale="1" border="0" disableSvgWarning="true">
    <diagram id="C3bkfMkm8NX2UVXmflh9" name="Page-1">
        <mxGraphModel dx="1041" dy="420" grid="1" gridSize="10" guides="1" tooltips="1" connect="1" arrows="1" fold="1" page="1" pageScale="1" pageWidth="850" pageHeight="1100" math="0" shadow="0">
            <root>
                <mxCell id="0"/>
                <mxCell id="1" parent="0"/>
                <mxCell id="2" value="" style="shape=image;verticalLabelPosition=bottom;labelBackgroundColor=#ffffff;verticalAlign=top;aspect=fixed;imageAspect=0;image=data:image/svg+xml,PHN2ZyB4bWxucz0iaHR0cDovL3d3dy53My5vcmcvMjAwMC9zdmciIHZlcnNpb249IjEuMCIgd2lkdGg9IjUxMy43MDAwMTIyMDcwMzEyIiBoZWlnaHQ9IjEyNzkuNzI3Mjk0OTIxODc1IiB2aWV3Qm94PSI2Mi43OTk5OTkyMzcwNjA1NSAwLjA5ODE5NTg1MDg0OTE1MTYxIDUxMy43MDAwMTIyMDcwMzEyIDEyNzkuNzI3Mjk0OTIxODc1IiBwcmVzZXJ2ZUFzcGVjdFJhdGlvPSJ4TWlkWU1pZCBtZWV0Ij4KPG1ldGFkYXRhPgpDcmVhdGVkIGJ5IHBvdHJhY2UgMS4xNSwgd3JpdHRlbiBieSBQZXRlciBTZWxpbmdlciAyMDAxLTIwMTcKPC9tZXRhZGF0YT4KPGcgdHJhbnNmb3JtPSJ0cmFuc2xhdGUoMC4wMDAwMDAsMTI4MC4wMDAwMDApIHNjYWxlKDAuMTAwMDAwLC0wLjEwMDAwMCkiIGZpbGw9IiMwMDAwMDAiIHN0cm9rZT0ibm9uZSI+CjxwYXRoIGQ9Ik0zMDE1IDEyNzQyIGMtNTAgLTMxIC0xMjAgLTc1IC0xNTYgLTk4IGwtNjYgLTQxIDI4IC0xMzkgYzE2IC03NiAyOCYjMTA7LTE0OCAyOSAtMTU5IDAgLTIwIC03IC0yMCAtMjgyIC0yMCBsLTI4MyAwIDEgLTM2NiAxIC0zNjcgNTkgLTc2IDU5IC03NiAxMzYmIzEwOzAgYzc1IDAgMTM4IC0zIDE0MSAtNiAzIC0zIDEgLTIwIC01IC0zOSAtOSAtMzIgLTEzIC0zNCAtNjYgLTQwIC0zMSAtNCAtMTIxJiMxMDstMTcgLTIwMCAtMzEgLTQ2NCAtNzkgLTc4NCAtMjIzIC04ODYgLTM5OSAtMjkgLTUwIC01NSAtMTQ4IC01NSAtMjA4IDAgLTE1MiYjMTA7ODUgLTQwOSAyOTMgLTg5MiAyMjIgLTUxNCAyODUgLTY2MyAzMDIgLTcwOCBsMTggLTQ3IC01MiAtNTUgYy0xMjkgLTEzNiAtMTIxJiMxMDstMjY4IDIyIC00MDEgMzggLTM2IDU3IC01OSA0OSAtNjIgLTMyIC0xMCAtMTYyIC0xMDUgLTIxMSAtMTU0IC0yOSAtMjkgLTY2JiMxMDstNzUgLTgxIC0xMDEgLTIxIC0zOCAtNDEgLTU1IC04NiAtNzkgLTI3MSAtMTQyIC00MTkgLTM0OCAtMzg1IC01MzQgNDggLTI1OCYjMTA7MzgwIC00ODQgODk2IC02MDggbDkwIC0yMiA4IC04MCBjMTMgLTEyNiAxIC04OTMgLTE3IC0xMTE5IC00NiAtNTY3IC0xMzYmIzEwOy0xMTIyIC0yNjQgLTE2MzAgbC0yOCAtMTA5IC0xMjUgLTYzIGMtMTg3IC05NCAtMjk1IC0xOTIgLTMzNCAtMzA0IC0xOCAtNDkmIzEwOy0yMSAtMTg2IC04IC0zMjggMTggLTE5NCAtMTcgLTM3NSAtOTUgLTQ5NSAtNTkgLTg5IC0xNDEgLTE2NiAtMzE3IC0yOTkgLTMxNSYjMTA7LTIzOCAtNDI0IC0zNzUgLTQ4NiAtNjE5IC0yMSAtNzggLTIyIC0xMTMgLTI2IC01NjAgbC01IC00NzggMzAgLTU4IGM1MCAtMTAxJiMxMDs5OSAtMTY2IDE5MiAtMjU2IDI1NyAtMjQ3IDY3NCAtNDIzIDEyNTAgLTUyNiA3MTQgLTEyOCAxNjA0IC0xMTYgMjMyOSAzMSA3MzAmIzEwOzE0NyAxMTk1IDQwMSAxMzE1IDcxNyAyMCA1NSAyMSA3MSAyMSA1MTIgbDAgNDU1IC0zOCAxMDAgYy0xMTMgMjk0IC0yNDAgNDY0JiMxMDstNTQ3IDczNiAtMTkxIDE2OSAtMjU4IDI0NyAtMzE5IDM3NCAtNTkgMTIwIC04MCAyMDIgLTkxIDM1NCAtNyA5MSAtNiAxMjcgNyYjMTA7MTg0IDEzIDU3IDE0IDc5IDQgMTIwIC0zMSAxMzYgLTE4NSAyNzcgLTQwMSAzNjcgLTQxIDE4IC04MCAzNyAtODcgNDMgLTE4IDE5JiMxMDstMTI3IDQzOSAtMTgzIDcxMiAtNjkgMzM0IC0xMTUgNjQ4IC0xNDYgOTkwIC0yMiAyMzkgLTIzIDg5OSAtMiAxMDk5IGwxMyAxMjkmIzEwOzEyMyAzMiBjNDI5IDExMyA3MTcgMjg2IDgyMCA0OTQgMzQgNjkgMzcgODIgMzcgMTYwIDAgNzYgLTQgOTQgLTMyIDE1NCAtNTMmIzEwOzExMiAtMTc3IDIyOCAtMzQ0IDMyMSAtNTUgMzAgLTc0IDQ4IC0xMDggMTAxIC00OSA3NiAtMTE4IDEzOSAtMjIyIDIwMyBsLTc2JiMxMDs0OCA0MyAzMiBjMjMgMTggNTkgNTggODAgODggMzMgNDggMzkgNjUgNDIgMTIzIDUgODIgLTE5IDEzOSAtODQgMjA3IGwtNDQgNDQmIzEwOzU0IDE0OCBjMzAgODEgMTE1IDMwMiAxODkgNDkyIDE1MiAzODcgMjQ5IDY1OSAyOTcgODMwIDE4IDYzIDQ0IDEzNCA1NyAxNTcmIzEwOzM4IDY1IDQyIDE0NyAxMSAyMTQgLTcyIDE1NiAtMzEwIDI4OCAtNjgwIDM3OSAtMTIyIDMwIC0zMTcgNjQgLTQyOSA3NSAtNjQgNyYjMTA7LTY3IDggLTczIDM3IC0zIDE3IC02IDM0IC02IDM5IDAgNSA4MyA5IDE4NSA5IGwxODUgMCAwIDM3NSBjMCAyMTEgLTQgMzc1IC05JiMxMDszNzUgLTUgMCAtMzUgMzIgLTY2IDcwIGwtNTcgNzAgLTE2NCAwIGMtOTAgMCAtMTY0IDMgLTE2NCA3IDAgNCAxMCA0MiAyMSA4NSYjMTA7bDIxIDc4IC0zMiAzMyBjLTE3IDE3IC00NiA1MSAtNjMgNzQgLTI0IDMxIC03MiA2NCAtMTk5IDEzNyAtOTIgNTMgLTE3MSA5NiYjMTA7LTE3NSA5NSAtNSAwIC00OSAtMjYgLTk4IC01N3oiLz4KPC9nPgo8L3N2Zz4=;fillColor=#FFFFFF;" vertex="1" parent="1">
                    <mxGeometry x="80" y="240" width="56.27" height="140" as="geometry"/>
                </mxCell>
                <mxCell id="3" value="Simple Chess Engine" style="text;html=1;strokeColor=none;fillColor=none;align=left;verticalAlign=middle;whiteSpace=wrap;rounded=0;fontStyle=1;fontSize=42;" vertex="1" parent="1">
                    <mxGeometry x="160" y="300" width="320" height="20" as="geometry"/>
                </mxCell>
            </root>
        </mxGraphModel>
    </diagram>
</mxfile>